<?xml version="1.0" encoding="iso-8859-1"?>
<!-- Generator: Adobe Illustrator 19.0.0, SVG Export Plug-In . SVG Version: 6.00 Build 0)  -->
<svg version="1.1" id="Capa_1" xmlns="http://www.w3.org/2000/svg" xmlns:xlink="http://www.w3.org/1999/xlink" x="0px" y="0px"
	 viewBox="0 0 512.001 512.001" style="enable-background:new 0 0 512.001 512.001;" xml:space="preserve">
<path style="fill:#FEA832;" d="M232.197,378.289l-38.48-38.48c-7.119-4.263-16.318-1.963-20.581,5.142l-49.994,83.333
	c-3.545,5.903-2.607,13.462,2.256,18.325c4.762,4.786,12.307,5.852,18.325,2.256l83.333-49.994
	C234.16,394.607,236.46,385.393,232.197,378.289z"/>
<path style="fill:#FE8821;" d="M386.603,185.403c-4.849-4.893-12.393-5.801-18.325-2.256l-83.333,49.994
	c-7.104,4.263-9.404,13.477-5.142,20.581l38.48,38.48c2.417,1.45,5.083,2.139,7.705,2.139c5.098,0,10.063-2.593,12.876-7.28
	l49.994-83.333C392.403,197.824,391.465,190.266,386.603,185.403z"/>
<path style="fill:#FEA832;" d="M227.055,233.141l-83.333-49.994c-5.889-3.516-13.462-2.622-18.325,2.256
	c-4.863,4.863-5.801,12.422-2.256,18.325l49.994,83.333c2.813,4.688,7.778,7.28,12.876,7.28c2.622,0,5.288-0.688,7.705-2.139
	l38.48-38.48C236.46,246.617,234.16,237.404,227.055,233.141z"/>
<path style="fill:#FE8821;" d="M388.858,428.283l-49.994-83.333c-4.263-7.104-13.447-9.404-20.581-5.142l-38.48,38.48
	c-4.263,7.104-1.963,16.318,5.142,20.581l83.333,49.994c6.003,3.587,13.524,2.545,18.325-2.256
	C391.465,441.744,392.403,434.186,388.858,428.283z"/>
<g>
	<path style="fill:#FEA832;" d="M300.999,15.011V75.01c0,6-3.6,11.4-9.3,13.801c-5.4,2.399-12.001,1.199-16.199-3.301L256,66.311
		l-15-15V75.01c0,8.401-6.599,15-15,15s-15-6.599-15-15V15.011c0-6,3.6-11.4,9.3-13.801c5.7-2.399,12.001-1.199,16.199,3.301
		L256,23.71l15,15V15.011c0-8.401,6.599-15,15-15C294.401,0.012,300.999,6.61,300.999,15.011z"/>
	<path style="fill:#FEA832;" d="M450.996,316.005c0-6.46-4.131-12.188-10.254-14.224L312.864,259.14l-26.238,11.239L256,316.004
		l18.105,48.104l38.76,8.761l127.878-42.641C446.865,328.193,450.996,322.465,450.996,316.005z"/>
</g>
<path style="fill:#FEB756;" d="M199.136,259.141L71.258,301.782c-6.123,2.036-10.254,7.764-10.254,14.224
	c0,6.46,4.131,12.188,10.254,14.224l127.878,42.641l41.238-11.239L256,316.007l-12.221-42.22L199.136,259.141z"/>
<path style="fill:#FE8821;" d="M275.5,85.509L255.999,66.31V23.711l15,15V15.011c0-8.401,6.599-15,15-15c8.401,0,15,6.599,15,15
	V75.01c0,6-3.6,11.4-9.3,13.801C286.3,91.21,279.699,90.01,275.5,85.509z"/>
<path style="fill:#FEC478;" d="M312.999,373.003L270.098,501.8c-1.8,6-7.5,10.201-14.099,10.201s-12.299-4.2-14.099-10.201
	L199,373.003l57-56.998L312.999,373.003z"/>
<path style="fill:#FEB756;" d="M256,316.005l57,56.998L270.099,501.8c-1.8,6-7.5,10.201-14.099,10.201V316.005z"/>
<path style="fill:#FEC478;" d="M312.999,259.005l-57,57l-57-57l42.901-128.797c2.098-5.999,8.099-9.3,14.099-9.3
	s12.001,3.301,14.099,9.3L312.999,259.005z"/>
<path style="fill:#FEB756;" d="M312.999,259.005l-57,57V120.908c6,0,12.001,3.301,14.099,9.3L312.999,259.005z"/>
<g>
</g>
<g>
</g>
<g>
</g>
<g>
</g>
<g>
</g>
<g>
</g>
<g>
</g>
<g>
</g>
<g>
</g>
<g>
</g>
<g>
</g>
<g>
</g>
<g>
</g>
<g>
</g>
<g>
</g>
</svg>
