<svg id="Layer_1" height="512" viewBox="0 0 512 512" width="512" xmlns="http://www.w3.org/2000/svg" data-name="Layer 1"><path d="m305.16 463.86s9 40.98-49.16 42.14c-58.42-1.29-49.7-41.6-49.7-41.6 9.17 9.71 23.38 18.25 45.29 19.97a53.978 53.978 0 0 0 8.9-.04c21.32-1.89 35.42-10.64 44.67-20.47z" fill="#ad8a73"/><path d="m238.153 482.268c-14.5-3.476-24.715-10.309-31.853-17.868 0 0-8.72 40.31 49.7 41.6a97.92 97.92 0 0 0 15.007-1.376c-20.553-3.569-29.286-13.338-32.854-22.356z" fill="#8c6e5e"/><path d="m347.11 267.82a516.243 516.243 0 0 0 4.27-53.62l6.76-25.84c8.3-25.1-14.97-56.47-14.97-56.47s-35.47-30.66 28.45-113.93c-.08-7.41-.35-11.96-.35-11.96-23.12 10.94-67.39 64.95-67.39 64.95l-94.98.64s-45.05-54.65-68.17-65.59c0 0-.13 2.22-.24 6.09 63.92 83.27 28.34 119.8 28.34 119.8s-23.27 31.37-14.97 56.47l6.16 25.84s1.86 26.16 5.77 53.62c-.39 1.18-31.64 93.62 23.85 156h.01l132.63.14c68.39-58.02 25.59-154.44 24.83-156.13z" fill="#ca9b76"/><path d="m195.79 267.82c-3.91-27.46-5.77-53.62-5.77-53.62l-6.16-25.84c-8.3-25.1 14.97-56.47 14.97-56.47s18.28-18.784 5.074-60.1a49.474 49.474 0 0 0 -10.352-17.923c-15.228-16.98-38.331-41-52.822-47.862 0 0-.13 2.22-.24 6.09 63.92 83.27 28.34 119.8 28.34 119.8s-23.27 31.37-14.97 56.47l6.16 25.84s1.86 26.16 5.77 53.62c-.39 1.18-31.64 93.62 23.85 156h30c-55.49-62.385-24.24-154.825-23.85-156.005z" fill="#b2896d"/><path d="m371.62 17.96c.3 27.04-1.85 92.21-28.45 113.93 0 0-35.47-30.66 28.45-113.93z" fill="#a07857"/><path d="m140.49 12.09c63.92 83.27 28.34 119.8 28.34 119.8-28.79-23.52-28.94-97.94-28.34-119.8z" fill="#a07857"/><path d="m365.5 192.18c.61.51 1.24 1.05 1.88 1.65-2.72 11.91-9.23 17.69-16 20.37-9.93 3.9-20.43 1.12-20.43 1.12s.93-12.08 7.9-20.78a18.517 18.517 0 0 1 19.29-6.18 19.1 19.1 0 0 1 7.36 3.82z" fill="#e2e4ed"/><path d="m173.15 194.54c6.97 8.7 7.9 20.78 7.9 20.78s-10.67 4.05-21.03-1.12c-5.92-2.96-11.73-8.93-15.39-20.38.64-.59 1.26-1.14 1.87-1.64a19.1 19.1 0 0 1 7.36-3.82 18.517 18.517 0 0 1 19.29 6.18z" fill="#e2e4ed"/><path d="m286.78 118.7c-.12.87-6.61 45.8-32.44 55.21 0 0-28.81-17.86-31.2-53.43-7.57 12.44-8.49 21.06-8.49 21.06-13.85-11.68-16.87-29.22-16.12-44.68a40.846 40.846 0 0 1 36.5-38.64 206.877 206.877 0 0 1 43.8.2 40.765 40.765 0 0 1 36.15 39.45c.35 14.55-2.65 31.07-14.49 43.67 0 0-2.85-7.6-13.71-22.84z" fill="#50565f"/><path d="m214.65 141.54s.92-8.62 8.49-21.06c2.39 35.57 31.2 53.43 31.2 53.43 6.488-2.364 11.755-6.969 16.008-12.554a69.136 69.136 0 0 1 -17.208-40.876c-7.57 12.44-8.49 21.06-8.49 21.06-13.85-11.68-16.87-29.22-16.12-44.68a40.846 40.846 0 0 1 36.5-38.64c1.89-.2 3.864-.367 5.9-.516a206.277 206.277 0 0 0 -35.9.516 40.846 40.846 0 0 0 -36.5 38.64c-.75 15.46 2.27 33 16.12 44.68z" fill="#3e4147"/><g fill="#a8836a"><path d="m302.809 362.053a5 5 0 0 1 -4.145-7.791c21.661-32.2 28.823-103.925 28.893-104.646a5 5 0 0 1 9.953.963c-.294 3.044-7.473 74.957-30.548 109.264a5 5 0 0 1 -4.153 2.21z"/><path d="m209.191 362.053a5 5 0 0 1 -4.153-2.21c-23.075-34.307-30.254-106.22-30.548-109.264a5 5 0 1 1 9.953-.963c.07.721 7.232 72.442 28.893 104.646a5 5 0 0 1 -4.145 7.791z"/><path d="m234.228 335.638a4.983 4.983 0 0 1 -3.606-1.536c-13.4-13.946-15.275-43.338-15.349-44.582a5 5 0 0 1 9.983-.593c.016.268 1.742 26.966 12.577 38.248a5 5 0 0 1 -3.6 8.463z"/><path d="m279.544 335.638a5 5 0 0 1 -3.6-8.463c10.835-11.282 12.561-37.98 12.577-38.248a5 5 0 0 1 9.982.593c-.073 1.244-1.953 30.636-15.347 44.582a4.99 4.99 0 0 1 -3.612 1.536z"/></g><path d="m322.28 423.96a64.515 64.515 0 0 1 -16.16 38.85l-.96 1.05c-9.25 9.83-23.35 18.58-44.67 20.47a53.978 53.978 0 0 1 -8.9.04c-21.91-1.72-36.12-10.26-45.29-19.97a61.256 61.256 0 0 1 -16.65-40.58c-.02-.37-.03-.75-.04-1.13-.79-36.83 9.95-55.94 19.57-65.63l.01-.01a7.732 7.732 0 0 1 12.99 3.88 25.044 25.044 0 0 0 1.44 4.31c4.57 10.62 33.59 11.39 33.59 11.39s26.6-.77 31.17-11.39a25.044 25.044 0 0 0 1.44-4.31 7.732 7.732 0 0 1 12.99-3.88l.01.01c9.35 9.42 19.77 27.75 19.61 62.63-.01 1.43-.06 2.85-.15 4.27z" fill="#616872"/><path d="m236.3 464.4a61.256 61.256 0 0 1 -16.65-40.58c-.02-.37-.03-.75-.04-1.13-.518-24.142 3.919-40.669 9.746-51.921-2.675-1.456-4.763-3.267-5.736-5.529a25.044 25.044 0 0 1 -1.44-4.31 7.732 7.732 0 0 0 -12.99-3.88l-.01.01c-9.62 9.69-20.36 28.8-19.57 65.63.01.38.02.76.04 1.13a61.256 61.256 0 0 0 16.65 40.58c9.17 9.71 23.38 18.25 45.29 19.97a53.978 53.978 0 0 0 8.9-.04 84.284 84.284 0 0 0 10.084-1.512c-15.803-3.267-26.743-10.444-34.274-18.418z" fill="#4c5156"/><path d="m299.91 390.49a6.766 6.766 0 0 1 .12 3.57l-2.38 10.2a6.894 6.894 0 0 0 -.04 2.93c1.77 8.71 14.45 47.59-14.41 46.06-23.17-1.22-5.7-37.06.87-47.81a9.867 9.867 0 0 0 1.02-8.24l-.9-2.81c-1.43-4.5 1.86-9.19 7.28-9.91 5.47-.72 7.63 3.38 8.44 6.01z" fill="#393b3f"/><path d="m224.91 405.44c6.57 10.75 24.04 46.59.87 47.81-28.85 1.53-16.18-37.35-14.41-46.06a6.737 6.737 0 0 0 -.04-2.93l-2.38-10.2a6.869 6.869 0 0 1 .12-3.57c.81-2.63 2.97-6.73 8.44-6.01 5.43.72 8.71 5.41 7.28 9.91l-.89 2.81a9.827 9.827 0 0 0 1.01 8.24z" fill="#393b3f"/></svg>